<?xml version="1.0" encoding="utf-8"?>
<!-- Generator: Adobe Illustrator 24.3.0, SVG Export Plug-In . SVG Version: 6.00 Build 0)  -->
<svg version="1.1" id="aa1f3d61-62fa-4aac-9769-a145a7bb077b"
	 xmlns="http://www.w3.org/2000/svg" xmlns:xlink="http://www.w3.org/1999/xlink" x="0px" y="0px" viewBox="0 0 564.1 119.8"
	 style="enable-background:new 0 0 564.1 119.8;" xml:space="preserve">
<style type="text/css">
	.st0{fill:#FFFFFF;}
</style>
<path class="st0" d="M93.3,100.8c2.1,1.7,3.2,4.2,3.1,6.9c0,2.4-0.8,4.7-2.5,6.4c-1.9,1.9-4.2,3.4-6.7,4.2c-3.1,1-6.4,1.5-9.6,1.5
	c-5.8,0-10.2-0.9-13.1-2.6c-2.9-1.7-4.4-4-4.4-6.8c0-1.6,0.6-3.2,1.7-4.4c1.3-1.3,3-2.3,4.8-2.7c-1.4-0.6-2.7-1.6-3.7-2.8
	c-0.9-1.2-1.4-2.6-1.4-4.1c0-3.6,1.9-6,5.7-7.3c-1.8-1-3.2-2.4-4.2-4.2c-1-1.8-1.5-3.8-1.4-5.9c0-2.3,0.7-4.6,2-6.5
	c1.4-2,3.4-3.5,5.6-4.4c2.6-1.1,5.5-1.6,8.3-1.5c2.5,0,5,0.4,7.4,1.2c0.9-5.1,5.6-8.7,10.8-8.1l1.3,6.1C95,65.7,93,66,91.2,66.7
	c-1.3,0.5-2.4,1.6-3,2.9c1.5,1.1,2.8,2.5,3.7,4.1c0.9,1.7,1.3,3.5,1.3,5.4c0.1,3.5-1.5,6.9-4.4,9c-2.9,2.2-6.8,3.4-11.5,3.4
	c-2,0-4.1-0.2-6.1-0.7c-1,0.2-2,0.7-2.7,1.4c-0.6,0.7-0.9,1.7-0.8,2.6c-0.1,1,0.4,2,1.2,2.6c1,0.7,2.2,1,3.3,0.9h12.2
	C88.3,98.3,91.2,99.1,93.3,100.8z M86.6,112.4c2-1,3-2.3,3-3.8c0.1-1.1-0.5-2.2-1.5-2.8c-1.5-0.8-3.2-1.1-4.9-1h-9.9
	c-1.7-0.1-3.4,0.2-4.9,1c-1,0.6-1.7,1.7-1.6,2.9c0,1.7,1,2.9,2.9,3.8c1.9,0.9,4.8,1.4,8.6,1.4C81.1,114,84,113.5,86.6,112.4
	L86.6,112.4z M71.8,74.1c-1.5,1.2-2.3,3-2.3,4.9c-0.1,1.9,0.8,3.8,2.3,5c3.3,2.6,8,2.6,11.3,0c1.5-1.2,2.3-3.1,2.2-5
	c0.1-1.9-0.8-3.8-2.2-5C79.8,71.5,75.1,71.5,71.8,74.1z"/>
<path class="st0" d="M135.4,98.6l-0.5,5.3c-1.4,0.6-3,0.9-4.5,0.9c-1.8,0.1-3.5-0.3-5-1.2c-1.4-1-2.2-2.5-2.5-4.2
	c-1.2,1.8-3,3.2-5,4c-2.3,1-4.9,1.5-7.4,1.4c-3.1,0.1-6.1-0.7-8.6-2.5c-2.2-1.7-3.4-4.3-3.3-7.1c0-2.9,1.3-5.6,3.6-7.3
	c2.4-2,6-3.4,10.7-4.2l9.3-1.6v-2c0.1-2-0.6-3.9-2-5.3c-1.5-1.4-3.5-2.1-5.5-1.9c-4.8,0-8,2.2-9.4,6.6l-6.1-3.2
	c0.9-2.9,2.8-5.4,5.4-7c3-1.8,6.5-2.7,10-2.6c4.7,0,8.5,1.1,11.3,3.3c2.8,2.2,4.2,5.4,4.2,9.7v16.6c-0.1,0.7,0.2,1.5,0.6,2.1
	c0.6,0.5,1.3,0.7,2.1,0.7C133.6,98.9,134.5,98.8,135.4,98.6z M119.1,96.9c1.8-1,3-2.9,3-5.1v-4.4l-8,1.6c-2,0.3-3.9,1-5.6,2.1
	c-1.2,0.8-1.9,2.1-1.8,3.5c-0.1,1.2,0.5,2.4,1.4,3.1c1.2,0.8,2.6,1.2,4.1,1.1C114.6,98.9,117,98.2,119.1,96.9z"/>
<path class="st0" d="M146.9,93.3c-0.1,1.3,0.2,2.6,0.8,3.8c0.8,0.8,1.9,1.2,3,1.1c0.8,0,1.6-0.1,2.4-0.2c0.8-0.2,1.7-0.4,2.5-0.8
	l-0.9,6.3c-1.9,0.9-4,1.3-6.1,1.2c-3.3,0-5.7-0.8-7.2-2.5c-1.5-1.7-2.3-4.3-2.3-7.8V50.9h7.8L146.9,93.3z"/>
<path class="st0" d="M196.5,98.6l-0.5,5.3c-1.4,0.6-3,0.9-4.5,0.9c-1.8,0.1-3.5-0.3-5-1.2c-1.4-1-2.2-2.5-2.5-4.2
	c-1.2,1.8-3,3.2-5,4c-2.3,1-4.9,1.5-7.4,1.4c-3.1,0.1-6.1-0.7-8.6-2.5c-2.2-1.7-3.4-4.3-3.3-7.1c0-2.9,1.3-5.6,3.6-7.3
	c2.4-2,6-3.4,10.7-4.2l9.3-1.6v-2c0.1-2-0.6-3.9-2-5.3c-1.5-1.4-3.5-2.1-5.5-1.9c-4.8,0-8,2.2-9.4,6.6l-6.1-3.2
	c0.9-2.9,2.8-5.4,5.4-7c3-1.8,6.5-2.7,10-2.6c4.7,0,8.5,1.1,11.3,3.3c2.8,2.2,4.2,5.4,4.2,9.7v16.6c-0.1,0.7,0.2,1.5,0.6,2.1
	c0.6,0.5,1.3,0.7,2.1,0.7C194.8,98.9,195.7,98.8,196.5,98.6z M180.3,96.9c1.8-1,3-2.9,3-5.1v-4.4l-8,1.6c-2,0.3-3.9,1-5.6,2.1
	c-1.2,0.8-1.9,2.1-1.8,3.5c-0.1,1.2,0.5,2.4,1.4,3.1c1.2,0.8,2.6,1.2,4.1,1.1C175.8,98.9,178.2,98.2,180.3,96.9L180.3,96.9z"/>
<path class="st0" d="M207.3,102.8c-2.7-1.2-5-3.2-6.5-5.8l5.3-4.5c0.8,2,2.4,3.6,4.3,4.6c2.2,1,4.6,1.5,7,1.5c2,0.1,4-0.3,5.8-1.2
	c1.2-0.6,2-1.8,2.1-3.2c0-1.2-0.8-2.3-1.9-2.8c-2.1-1-4.3-1.6-6.6-2c-5.4-1-9.2-2.4-11.4-4.1c-2.2-1.7-3.4-4.4-3.3-7.3
	c0-2,0.6-4,1.8-5.6c1.4-1.8,3.2-3.3,5.3-4.2c2.6-1.1,5.4-1.6,8.2-1.6c3.4-0.1,6.7,0.5,9.7,2c2.5,1.4,4.5,3.6,5.6,6.3l-5.6,4.1
	c-0.7-1.9-2-3.6-3.7-4.7c-1.8-1.1-3.9-1.6-6-1.5c-1.9-0.1-3.8,0.4-5.5,1.4c-1.4,0.9-2.2,1.9-2.2,3.1c0,1.3,0.8,2.5,1.9,3.2
	c2.2,1.1,4.6,1.8,7.1,2.1c5.2,0.9,8.8,2.2,11,4c2.2,1.7,3.4,4.4,3.2,7.2c0,3.2-1.6,6.2-4.2,8c-2.8,2.1-6.7,3.1-11.7,3.1
	C213.8,104.8,210.5,104.2,207.3,102.8z"/>
<path class="st0" d="M300.6,102.8c-2.7-1.2-5-3.2-6.5-5.8l5.3-4.5c0.8,2,2.4,3.6,4.3,4.6c2.2,1,4.6,1.5,7,1.5c2,0.1,4-0.3,5.8-1.2
	c1.2-0.6,2-1.8,2.1-3.2c0-1.2-0.8-2.3-1.9-2.8c-2.1-1-4.3-1.6-6.6-2c-5.4-1-9.2-2.4-11.4-4.1c-2.2-1.7-3.4-4.4-3.3-7.3
	c0-2,0.6-4,1.8-5.6c1.4-1.8,3.2-3.3,5.3-4.2c2.6-1.1,5.4-1.6,8.2-1.6c3.4-0.1,6.7,0.5,9.7,2c2.5,1.4,4.5,3.6,5.6,6.3l-5.6,4.1
	c-0.7-1.9-2-3.6-3.7-4.7c-1.8-1.1-3.9-1.6-6-1.5c-1.9-0.1-3.8,0.4-5.5,1.4c-1.4,0.9-2.2,1.9-2.2,3.1c0,1.3,0.8,2.5,1.9,3.2
	c2.2,1.1,4.6,1.8,7.1,2.1c5.2,0.9,8.8,2.2,11,4c2.2,1.7,3.4,4.4,3.2,7.2c0,3.2-1.6,6.2-4.2,8c-2.8,2.1-6.7,3.1-11.7,3.1
	C307.1,104.8,303.7,104.2,300.6,102.8z"/>
<path class="st0" d="M274.5,98.6l-0.5,5.3c-1.4,0.6-3,0.9-4.5,0.9c-1.8,0.1-3.5-0.3-5-1.2c-1.4-1-2.2-2.5-2.5-4.2
	c-1.2,1.8-3,3.2-5,4c-2.3,1-4.9,1.5-7.4,1.4c-3.1,0.1-6.1-0.7-8.6-2.5c-2.2-1.7-3.4-4.3-3.3-7.1c0-2.9,1.3-5.6,3.6-7.3
	c2.4-2,6-3.4,10.7-4.2l9.3-1.6v-2c0.1-2-0.6-3.9-2-5.3c-1.5-1.4-3.5-2.1-5.5-1.9c-4.8,0-8,2.2-9.4,6.6l-6.1-3.2
	c0.9-2.9,2.8-5.4,5.4-7c3-1.8,6.5-2.7,10-2.6c4.7,0,8.5,1.1,11.3,3.3c2.8,2.2,4.2,5.4,4.2,9.7v16.6c-0.1,0.7,0.2,1.5,0.6,2.1
	c0.6,0.5,1.3,0.7,2.1,0.7C272.7,98.9,273.6,98.8,274.5,98.6z M258.2,96.9c1.8-1,3-2.9,3-5.1v-4.4l-8,1.6c-2,0.3-3.9,1-5.6,2.1
	c-1.2,0.8-1.9,2.1-1.8,3.5c-0.1,1.2,0.5,2.4,1.4,3.1c1.2,0.8,2.6,1.2,4.1,1.1C253.7,98.9,256.1,98.2,258.2,96.9z"/>
<path class="st0" d="M484.7,98.6l-0.5,5.3c-1.4,0.6-3,0.9-4.5,0.9c-1.8,0.1-3.5-0.3-5-1.2c-1.4-1-2.2-2.5-2.5-4.2
	c-1.2,1.8-3,3.2-5,4c-2.3,1-4.9,1.5-7.4,1.4c-3.1,0.1-6.1-0.7-8.6-2.5c-2.2-1.7-3.4-4.3-3.3-7.1c0-2.9,1.3-5.6,3.6-7.3
	c2.4-2,6-3.4,10.7-4.2l9.3-1.6v-2c0.1-2-0.6-3.9-2-5.3c-1.5-1.4-3.5-2.1-5.5-1.9c-4.8,0-8,2.2-9.4,6.6l-6.1-3.2
	c0.9-2.9,2.8-5.4,5.4-7c3-1.8,6.5-2.7,10-2.6c4.7,0,8.5,1.1,11.3,3.3c2.8,2.2,4.2,5.4,4.2,9.7v16.6c-0.1,0.7,0.2,1.5,0.6,2.1
	c0.6,0.5,1.3,0.7,2.1,0.7C482.9,98.9,483.8,98.8,484.7,98.6z M468.5,96.9c1.8-1,3-2.9,3-5.1v-4.4l-8,1.6c-2,0.3-3.9,1-5.6,2.1
	c-1.2,0.8-1.9,2.1-1.8,3.5c-0.1,1.2,0.5,2.4,1.4,3.1c1.2,0.8,2.6,1.2,4.1,1.1C463.9,98.9,466.4,98.2,468.5,96.9z"/>
<g id="b09332c8-931f-4b2b-89ee-d145e4136461">
	<path class="st0" d="M34.7,83.8c-1.2,0-2.4-0.3-3.5-0.9L3.7,67.1c-2.2-1.2-3.5-3.5-3.5-6L0,25.1c0-2.5,1.3-4.8,3.5-6.1L34.5,0.9
		c2.1-1.2,4.8-1.3,6.9,0l31.3,17.8c2.2,1.2,3.5,3.5,3.5,6l0.1,14.9c0,1.9-0.8,3.6-2.1,4.9c-1.3,1.3-3.1,2-4.9,2H41.7v30.2
		c0,3.2-2.1,5.9-5.2,6.7C36,83.7,35.3,83.8,34.7,83.8z M38,7L7,25.1l0.2,36l27.6,15.7l0-37.2h34.7l-0.1-14.8L38,7z"/>
</g>
<path class="st0" d="M335.7,61.3c-1.7,0-3-0.4-3.9-1.3c-0.9-0.9-1.4-2.1-1.4-3.6c0-1.6,0.5-2.8,1.4-3.6c0.9-0.8,2.2-1.2,3.9-1.2
	c1.7,0,2.9,0.4,3.9,1.2c0.9,0.8,1.4,2,1.4,3.6c0,1.6-0.5,2.8-1.4,3.6C338.7,60.9,337.4,61.3,335.7,61.3z M339.6,66.7v38.1h-7.9V66.7
	H339.6z"/>
<path class="st0" d="M344.5,104.8V66.7h7l0.4,6.9c1.3-2.3,3-4.1,5.1-5.2c2.1-1.1,4.4-1.7,6.8-1.7c2.6,0,5.1,0.6,7.3,1.8
	c2.2,1.2,3.9,3,5,5.4c0.8-1.6,1.9-3,3.2-4c1.4-1.1,2.9-1.9,4.6-2.4c1.7-0.5,3.3-0.8,4.9-0.8c2.3,0,4.6,0.5,6.6,1.5
	c2.1,1,3.7,2.5,5,4.5c1.3,2,1.9,4.6,1.9,7.7v24.4h-7.9V81.6c0-3-0.7-5.1-2.1-6.5c-1.4-1.3-3.2-2-5.4-2c-1.7,0-3.3,0.4-4.7,1.2
	c-1.4,0.8-2.6,2.1-3.5,3.7c-0.9,1.6-1.3,3.7-1.3,6.1v20.6h-7.9V81.6c0-3-0.7-5.1-2.1-6.5c-1.4-1.3-3.2-2-5.4-2
	c-1.5,0-2.9,0.4-4.4,1.2c-1.5,0.8-2.7,2-3.7,3.7c-1,1.7-1.5,3.9-1.5,6.6v20.2H344.5z"/>
<path class="st0" d="M440.9,75.5c-1.4-2.8-3.4-5-5.8-6.5c-2.5-1.5-5.2-2.3-8.1-2.3c-3.2,0-5.9,0.8-8.1,2.5c-1.7,1.2-2.9,2.7-3.9,4.4
	V50.9h-7.9v53.9h6.9l0.4-7.7c0.5,1.1,1.2,2.1,1.9,3.1c1.2,1.5,2.7,2.7,4.5,3.5c1.8,0.8,3.8,1.2,5.9,1.2c3,0,5.8-0.8,8.3-2.3
	c2.5-1.5,4.4-3.7,5.9-6.5c1.4-2.8,2.2-6.2,2.2-10.2C443,81.8,442.3,78.4,440.9,75.5z M432.5,95.2c-1.8,2.3-4.3,3.4-7.4,3.4
	c-2,0-3.8-0.5-5.3-1.5c-1.5-1-2.7-2.5-3.6-4.4c-0.8-1.9-1.2-4.1-1.2-6.7c0-2.6,0.4-4.9,1.3-6.8c0.9-1.9,2-3.4,3.6-4.4
	c1.5-1.1,3.3-1.6,5.4-1.6c3.2,0,5.7,1.1,7.4,3.4c1.8,2.3,2.6,5.4,2.6,9.3C435.2,89.8,434.3,92.9,432.5,95.2z"/>
<path class="st0" d="M520.4,72.7c-1.2-2-2.9-3.5-5-4.5c-2.1-1-4.4-1.5-7-1.5c-2,0-3.9,0.3-5.7,1c-1.8,0.6-3.3,1.7-4.6,3
	c-0.8,0.9-1.5,2-2.1,3.2l-0.3-6.4h-7v37.3h7.9V84.6c0-2.8,0.5-5,1.5-6.7c1-1.7,2.3-2.9,3.8-3.6c1.5-0.8,3.1-1.1,4.7-1.1
	c2.3,0,4.1,0.7,5.6,2.1c1.5,1.4,2.2,3.9,2.2,7.5v22h7.9V80.4C522.3,77.3,521.6,74.7,520.4,72.7z"/>
<polygon class="st0" points="554.6,104.8 563.7,104.8 548.5,81.8 562.6,67.4 553.3,67.4 535.8,85.4 535.8,50.9 527.9,50.9 
	527.9,104.8 535.8,104.8 535.8,94.4 543,86.9 "/>
</svg>
