<?xml version="1.0" encoding="utf-8"?>
<!-- Generator: Adobe Illustrator 24.3.0, SVG Export Plug-In . SVG Version: 6.00 Build 0)  -->
<svg version="1.1" xmlns="http://www.w3.org/2000/svg" xmlns:xlink="http://www.w3.org/1999/xlink" x="0px" y="0px"
	 viewBox="0 0 1920 1080" style="enable-background:new 0 0 1920 1080;" xml:space="preserve">
<style type="text/css">
	.st0{display:none;}
	.st1{display:inline;fill:#03429D;}
	.st2{display:inline;fill:#FFFFFF;stroke:#000000;stroke-miterlimit:10;}
	.st3{display:inline;fill:#F4E982;stroke:#000000;stroke-miterlimit:10;}
	.st4{display:inline;}
	.st5{fill:none;stroke:#000000;stroke-miterlimit:10;}
	.st6{display:inline;fill:none;stroke:#000000;stroke-miterlimit:10;}
	.st7{display:inline;fill:#F2F1EB;stroke:#000000;stroke-miterlimit:10;}
	.st8{fill:#FFAD90;}
	.st9{fill:#F8F788;}
	.st10{fill:#002A66;}
	.st11{fill:#03429D;}
	.st12{fill:#FFFFFF;}
	.st13{fill:none;stroke:#002A66;stroke-width:4;stroke-miterlimit:10;}
	.st14{fill:none;stroke:#002A66;stroke-width:3.2374;stroke-miterlimit:10;}
	.st15{clip-path:url(#SVGID_2_);fill:none;stroke:#002A66;stroke-width:4;stroke-miterlimit:10;}
	.st16{clip-path:url(#SVGID_4_);fill:none;stroke:#002A66;stroke-miterlimit:10;}
	.st17{fill:#B3B3B3;}
	.st18{fill:none;stroke:#03429D;stroke-miterlimit:10;}
	.st19{fill:#F2F2F2;}
	.st20{display:inline;fill:none;}
	.st21{display:inline;fill:#FFFFFF;}
	.st22{font-family:'WorkSans-Medium';}
	.st23{font-size:48px;}
	.st24{font-family:'OpenSans-SemiBold';}
	.st25{font-size:15px;}
	.st26{display:inline;fill:none;stroke:#FFFFFF;stroke-miterlimit:10;}
	.st27{fill:#FCE461;}
</style>
<g id="Layer_3" class="st0">
	<rect x="1.5" y="0.5" class="st1" width="1919" height="1080"/>
</g>
<g id="Layer_2" class="st0">
</g>
<g id="Layer_1">
	<rect x="224" y="161" class="st17" width="256" height="1"/>
	<rect x="224" y="193" class="st17" width="256" height="1"/>
	<rect x="671" y="865.5" transform="matrix(-1.836970e-16 1 -1 -1.836970e-16 1633 99)" class="st17" width="192" height="1"/>
	<rect x="671" y="897.5" transform="matrix(-1.836970e-16 1 -1 -1.836970e-16 1697 99)" class="st17" width="256" height="1"/>
	<rect x="639" y="865.5" transform="matrix(-1.836970e-16 1 -1 -1.836970e-16 1601 131)" class="st17" width="192" height="1"/>
	<rect x="1002" y="50.5" transform="matrix(-1.836970e-16 1 -1 -1.836970e-16 1149 -1047)" class="st17" width="192" height="1"/>
	<rect x="1002" y="82.5" transform="matrix(-1.836970e-16 1 -1 -1.836970e-16 1213 -1047)" class="st17" width="256" height="1"/>
	<rect x="970" y="50.5" transform="matrix(-1.836970e-16 1 -1 -1.836970e-16 1117 -1015)" class="st17" width="192" height="1"/>
	<g>
		<rect x="320" y="769.5" class="st17" width="96" height="1"/>
	</g>
	<g>
		<rect x="320" y="961" class="st17" width="96" height="1"/>
	</g>
	<g>
		<rect x="320" y="770" class="st17" width="1" height="192"/>
	</g>
	<g>
		<rect x="415" y="770" class="st17" width="1" height="192"/>
	</g>
	<g>
		<g>
			<rect x="320" y="418" class="st17" width="96" height="1"/>
		</g>
		<g>
			<rect x="320" y="513" class="st17" width="96" height="1"/>
		</g>
		<g>
			<rect x="320" y="418" class="st17" width="1" height="96"/>
		</g>
		<g>
			<rect x="415" y="418" class="st17" width="1" height="96"/>
		</g>
	</g>
	<g>
		<g>
			<rect x="319.8" y="546" class="st17" width="96" height="1"/>
		</g>
		<g>
			<rect x="319.8" y="641" class="st17" width="96" height="1"/>
		</g>
		<g>
			<rect x="319.8" y="546" class="st17" width="1" height="96"/>
		</g>
		<g>
			<rect x="414.8" y="546" class="st17" width="1" height="96"/>
		</g>
	</g>
	<rect x="1600" y="289" class="st17" width="256" height="1"/>
	<g>
		<g>
			<rect x="1760" y="322" class="st17" width="32" height="1"/>
		</g>
		<g>
			<rect x="1760" y="769" class="st17" width="32" height="1"/>
		</g>
		<g>
			<rect x="1760" y="322" class="st17" width="1" height="448"/>
		</g>
		<g>
			<rect x="1791" y="323" class="st17" width="1" height="446.5"/>
		</g>
	</g>
	<g>
		<g>
			<rect x="1824" y="322" class="st17" width="32" height="1"/>
		</g>
		<g>
			<rect x="1824" y="769" class="st17" width="32" height="1"/>
		</g>
		<g>
			<rect x="1824" y="322" class="st17" width="1" height="448"/>
		</g>
		<g>
			<rect x="1855" y="323" class="st17" width="1" height="446.5"/>
		</g>
	</g>
	<g>
		<g>
			<path class="st17" d="M0,822c-26.5,0-48,21.5-48,48c0,26.5,21.5,48,48,48s48-21.5,48-48C48,843.5,26.5,822,0,822z M0,917
				c-26,0-47-21-47-47s21-47,47-47s47,21,47,47S26,917,0,917z"/>
		</g>
	</g>
	<g>
		<g>
			<path class="st17" d="M1488,98c-26.5,0-48,21.5-48,48c0,26.5,21.5,48,48,48s48-21.5,48-48C1536,119.5,1514.5,98,1488,98z
				 M1488,193c-26,0-47-21-47-47s21-47,47-47s47,21,47,47S1514,193,1488,193z"/>
		</g>
	</g>
	<g>
		<g>
			<path class="st17" d="M1488,226c-26.5,0-48,21.5-48,48c0,26.5,21.5,48,48,48s48-21.5,48-48C1536,247.5,1514.5,226,1488,226z
				 M1488,321c-26,0-47-21-47-47s21-47,47-47s47,21,47,47S1514,321,1488,321z"/>
		</g>
	</g>
	<g>
		<g>
			<path class="st17" d="M1488,290c-26.5,0-48,21.5-48,48c0,26.5,21.5,48,48,48s48-21.5,48-48C1536,311.5,1514.5,290,1488,290z
				 M1488,385c-26,0-47-21-47-47s21-47,47-47s47,21,47,47S1514,385,1488,385z"/>
		</g>
	</g>
	<g>
		<path class="st17" d="M1488,868.2l46.4,92.8h-92.8L1488,868.2 M1488,866l-48,96h96L1488,866L1488,866z"/>
	</g>
</g>
<g id="Layer_4" class="st0">
	<g class="st4">
		<path class="st19" d="M1289,441.8c0,4.5-3.7,8.2-8.2,8.2H648.2c-4.5,0-8.2-3.7-8.2-8.2v-47.6c0-4.5,3.7-8.2,8.2-8.2h632.6
			c4.5,0,8.2,3.7,8.2,8.2V441.8z"/>
	</g>
	<g class="st4">
		<path class="st19" d="M1280,569.9c0,4.5-3.7,8.1-8.1,8.1H648.1c-4.5,0-8.1-3.7-8.1-8.1v-47.7c0-4.5,3.7-8.1,8.1-8.1h623.7
			c4.5,0,8.1,3.7,8.1,8.1V569.9z"/>
	</g>
	<rect x="631" y="286" class="st20" width="531.8" height="92.6"/>
	<text transform="matrix(1 0 0 1 631.0293 320.7773)" class="st21 st22 st23">Login to Galsasa</text>
	<rect x="1116" y="707" class="st20" width="163.8" height="19"/>
	<text transform="matrix(1 0 0 1 1128.1797 718.3779)" class="st21 st24 st25">Forgotten password?</text>
	<rect x="640" y="354" class="st20" width="163.8" height="19"/>
	<text transform="matrix(1 0 0 1 640 365.3779)" class="st21 st24 st25">Username</text>
	<rect x="640" y="483" class="st20" width="163.8" height="19"/>
	<text transform="matrix(1 0 0 1 640 494.3779)" class="st21 st24 st25">Password</text>
	<rect x="1181.5" y="619.5" class="st26" width="107" height="59"/>
	<g class="st4">
		<path class="st27" d="M1279.5,661.9c0,4.4-3.6,8.1-8.1,8.1h-91.3c-4.4,0-8.1-3.6-8.1-8.1v-43.8c0-4.4,3.6-8.1,8.1-8.1h91.3
			c4.4,0,8.1,3.6,8.1,8.1V661.9z"/>
	</g>
	<rect x="1171" y="634" class="st20" width="107" height="54"/>
	<text transform="matrix(1 0 0 1 1204.8311 645.4004)" class="st4 st24 st25">Login</text>
</g>
</svg>
